<svg width="150" height="150" viewBox="0 0 150 150" xmlns="http://www.w3.org/2000/svg">
    <path id ="wrench" fill-rule="evenodd" clip-rule="evenodd" d="M63.4638 18.6604C64.4615 17.9547 65.5267 17.3381 66.6478 16.8221L63.4638 18.6604ZM55 35C55 28.9128 57.7194 23.4608 62.0096 19.7926V34.5L75 42L87.9904 34.5V19.7926C92.2806 23.4608 95 28.9128 95 35C95 42.4028 90.978 48.8663 85 52.3244V97.6756C90.978 101.134 95 107.597 95 115C95 121.087 92.2806 126.539 87.9904 130.207V115.5L75 108L62.0096 115.5V130.207C57.7194 126.539 55 121.087 55 115C55 107.597 59.022 101.134 65 97.6756V52.3244C59.022 48.8663 55 42.4028 55 35ZM63.4638 131.34C64.4615 132.045 65.5267 132.662 66.6478 133.178L63.4638 131.34ZM83.3522 133.178C84.4733 132.662 85.5385 132.045 86.5362 131.34L83.3522 133.178ZM83.3522 16.8221C84.4733 17.3381 85.5385 17.9547 86.5362 18.6604L83.3522 16.8221Z"/>
</svg>
